<?xml version="1.0" encoding="UTF-8"?>
<svg width="1100px" height="1100px" viewBox="0 0 1100 1100" version="1.1" xmlns="http://www.w3.org/2000/svg" xmlns:xlink="http://www.w3.org/1999/xlink">
    <!-- Generator: Sketch 45.1 (43504) - http://www.bohemiancoding.com/sketch -->
    <title>story</title>
    <desc>Created with Sketch.</desc>
    <defs>
        <rect id="path-1" x="1003" y="353" width="497" height="152"></rect>
        <linearGradient x1="73.4941773%" y1="27.7044615%" x2="59.9259395%" y2="87.6723643%" id="linearGradient-2">
            <stop stop-color="#898898" offset="0%"></stop>
            <stop stop-color="#51505F" offset="100%"></stop>
        </linearGradient>
        <path d="M86.8884844,119.151151 C107.331538,129.508529 120.262639,134.687218 125.681788,134.687218 C133.810511,134.687218 129.328091,125.233282 125.681788,119.151151 C164.76779,140.613928 210.431191,145.792617 262.671993,134.687218 C264.865375,171.297461 268.034137,192.136647 272.17828,197.204777 C278.170498,204.157622 312.523481,153.44808 317.14115,142.299318 C321.758819,131.150556 308.1098,132.346812 314.822164,119.151151 C321.534528,105.95549 334.444554,99.8307991 331.914184,89.8834021 C329.383813,79.9360052 304.916652,81.0977187 304.507057,78.6003816 C304.097461,76.1030445 328.916807,78.6003816 326.81336,64.8663355 C324.709913,51.1322894 272.208039,32.1053739 260.789214,23.2736678 C249.37039,14.4419616 258.701507,7.50258503 246.178839,2.50086168 C237.830395,-0.833620559 216.447888,-0.833620559 182.031319,2.50086168 C135.918231,9.57044749 101.857943,11.5165144 79.8504575,8.33906235 C69.2463648,8.34951832 36.9876476,14.1301217 32.9539328,19.0923268 C17.6740529,37.8893662 1,45.0363671 1,95.5728359 C1,129.263815 4.34420938,147.526967 11.0326281,150.362293 C14.560772,147.69763 17.5100656,146.107354 19.8805089,145.591464 C22.2509522,145.075574 26.6087602,145.075574 32.9539328,145.591464 C44.7878522,155.142914 51.3057501,162.583624 52.5076266,167.913592 C57.6717342,190.814888 63.8165652,196.717668 67.8919885,195.163495 C73.3901617,193.066753 79.722327,167.729305 86.8884844,119.151151 Z" id="path-3"></path>
        <path d="M64.8046546,41.6345547 L65.7401476,41.6345547 L65.7401476,41.6345547 C67.8852527,41.6345547 69.624204,43.3735059 69.624204,45.518611 C69.624204,45.9530215 69.5513279,46.3843542 69.4086097,46.7946516 C66.8267498,54.2172425 65.5358112,59.0546229 65.5358112,61.3067986 C65.5358112,63.4435976 66.6978707,67.2283275 69.0219897,72.6609883 L69.0220177,72.6609764 C69.7974256,74.4735032 68.9566746,76.5714388 67.1441478,77.3468467 C66.7004106,77.5366796 66.2227854,77.6345547 65.7401476,77.6345547 L64.9326607,77.6345547 L64.9326607,77.6345547 C62.1531042,77.6345547 59.7374461,75.7254811 59.095084,73.0211688 C57.3751057,65.7801452 56.5151166,61.0482847 56.5151166,58.8255872 C56.5151166,56.6431487 57.3442346,52.4034847 59.0024705,46.1065955 L59.0024705,46.1065954 C59.6964788,43.4712084 62.0794184,41.6345547 64.8046546,41.6345547 Z" id="path-4"></path>
        <polygon id="path-5" points="590.410947 418.779472 992 387.921875 1015.67578 515.769531 899.746094 619.375 459.300781 530.925781"></polygon>
        <polygon id="path-6" points="-20.1140761 538.95383 592.611789 538.626251 592.611789 560.718494 522.49127 560.122569 467.855944 644.253594 450.03149 632.678258 496.722669 560.780148 352.526605 561.00134 307.741606 640.867062 288.965916 628.673987 326.768894 560.413277 -20.1140761 561.046073"></polygon>
        <linearGradient x1="26.5833856%" y1="43.4234667%" x2="21.673841%" y2="96.1540475%" id="linearGradient-7">
            <stop stop-color="#000000" stop-opacity="0" offset="0%"></stop>
            <stop stop-color="#000000" stop-opacity="0.467221467" offset="100%"></stop>
        </linearGradient>
        <polygon id="path-8" points="764.998787 612.918754 1083.82364 612.075236 1083.82364 634.167479 948.134498 634.167479 865.718641 725.699561 847.602518 709.387731 915.331137 634.167479 764.998787 635.010997"></polygon>
        <rect id="path-9" x="0" y="0" width="499.61203" height="499.61203"></rect>
        <path d="M0.376259542,367.401593 C39.0551892,149.055287 137.294764,27.6640349 295.094984,3.22783827 C452.895204,-21.2083584 567.891422,95.2143379 640.083637,352.495927 C576.347982,420.408362 485.293173,455.743682 366.919209,458.501885 C248.545246,461.260088 126.364263,430.893324 0.376259542,367.401593 Z" id="path-11"></path>
        <rect id="path-13" x="57.9549955" y="95.9255097" width="119.906887" height="49.961203"></rect>
        <rect id="path-14" x="295.27071" y="95.9255097" width="119.906887" height="49.961203"></rect>
        <rect id="path-15" x="176.862659" y="95.9255097" width="119.906887" height="49.961203"></rect>
        <rect id="path-16" x="59.9534436" y="0" width="119.906887" height="49.961203"></rect>
        <rect id="path-17" x="177.861883" y="0" width="119.906887" height="49.961203"></rect>
        <rect id="path-18" x="237.315714" y="47.9627549" width="119.906887" height="49.961203"></rect>
        <rect id="path-19" x="295.770322" y="0" width="119.906887" height="49.961203"></rect>
        <rect id="path-20" x="0" y="47.9627549" width="119.906887" height="49.961203"></rect>
        <path d="M41.2006148,14.6234383 L41.2006148,14.6234383 L41.2006148,14.6234383 C41.9729804,14.6234383 42.5991064,15.2495643 42.5991064,16.0219299 C42.5991064,16.1399139 42.5841761,16.2574236 42.5546712,16.3716588 C39.3499595,28.7793287 37.7476175,36.8124465 37.7476175,40.4710051 C37.7476175,44.1180729 39.3399101,51.7002363 42.5244953,63.2174953 L42.5244476,63.2175084 C42.7266098,63.9486411 42.2977945,64.7052261 41.5666618,64.9073883 C41.4474396,64.9403538 41.3243107,64.9570633 41.2006148,64.9570633 L41.2006148,64.9570633 L41.2006148,64.9570633 C40.1296381,64.9570633 39.1900089,64.2431229 38.9030089,63.2113176 C35.5798008,51.26381 33.918183,43.5126246 33.918183,39.9577535 C33.918183,36.4001482 35.582358,28.537921 38.9107079,16.371072 L38.9106935,16.371068 C39.193002,15.3390839 40.1307132,14.6234383 41.2006148,14.6234383 Z" id="path-21"></path>
    </defs>
    <g id="Main" stroke="none" stroke-width="1" fill="none" fill-rule="evenodd">
        <g id="story" transform="translate(-312.000000, -350.000000)">
            <rect id="Rectangle-9" fill="#A0E0DA" x="0" y="0" width="3000" height="1500"></rect>
            <g id="clouds" transform="translate(-23.000000, 294.000000)" fill="#ECF9FB">
                <circle id="Oval-3" cx="579" cy="387" r="387"></circle>
                <ellipse id="Oval-4" cx="910.5" cy="126.5" rx="136.5" ry="20.5"></ellipse>
                <ellipse id="Oval-5" cx="953.5" cy="332" rx="100.5" ry="16"></ellipse>
                <ellipse id="Oval-6" cx="216.5" cy="643" rx="216.5" ry="21"></ellipse>
                <ellipse id="Oval-7" cx="192" cy="164.5" rx="158" ry="17.5"></ellipse>
            </g>
            <g id="wall" opacity="0.99000001">
                <rect id="Rectangle" fill="#A0E0DA" x="0" y="0" width="1500" height="1450"></rect>
                <rect id="Rectangle-5" stroke="#8ABFB9" stroke-width="6" x="1089" y="484" width="361" height="103" rx="8"></rect>
                <polyline id="Path-23" stroke="#8ABFB9" stroke-width="6" points="1189.03342 509.158512 1222.42978 541.164951 1222.42978 701.477682"></polyline>
                <path d="M878,359.773876 L878,916.29062" id="Path-25" stroke="#8ABFB9" stroke-width="6"></path>
                <path d="M957.515925,392.341384 L975.508389,891.83311" id="Path-24" stroke="#8ABFB9" stroke-width="6"></path>
                <path d="M811.000392,347.137071 L828.215011,703.568939" id="Path-26" stroke="#8ABFB9" stroke-width="6"></path>
                <path d="M403,336.336491 L403,617.636113" id="Path-27" stroke="#8ABFB9" stroke-width="6"></path>
                <g id="Rectangle-4">
                    <use fill="#A0E0DA" fill-rule="evenodd" xlink:href="#path-1"></use>
                    <rect stroke="#8ABFB9" stroke-width="6" x="1006" y="356" width="491" height="146"></rect>
                </g>
                <rect id="Rectangle-3" stroke="#8ABFB9" stroke-width="6" x="1068" y="356" width="382" height="83"></rect>
            </g>
            <g id="father" opacity="0.99000001" transform="translate(283.000000, 412.000000)">
                <g id="head" transform="translate(126.000000, 0.000000)">
                    <path d="M43.3828125,182.945312 L38.1796875,354.878906 C64.353632,418.133948 87.5854029,450.857906 107.875,453.050781 C128.164597,455.243657 154.171108,427.841313 185.894531,370.84375 L185.894531,313.582031 L43.3828125,182.945312 Z" id="nest" stroke="#183943" stroke-width="5" fill="#E8B9A0"></path>
                    <path d="M59.4097326,181.408272 C58.215296,166.570677 29.461919,122.255547 7.40829177,154.215671 C-14.6453354,186.175795 23.0859108,235.505514 37.1363018,236.877157 C46.5032291,237.791585 52.1476945,233.050189 54.069698,222.652968 C68.5574242,277.85718 82.3050882,310.426733 95.31269,320.361629 C114.824093,335.263971 200.661656,342.345396 221.502103,331.958398 C242.342551,321.5714 246.4735,284.011024 258.660838,236.877157 C270.848176,189.743289 280.031765,195.618157 266.626588,140.076677 C253.221411,84.5351969 247.410153,60.626182 193.619421,42.9234885 C139.82869,25.220795 96.4256665,49.6217402 64.4277293,73.5324168 C32.4297921,97.4430934 60.6041691,196.245866 59.4097326,181.408272 Z" id="face" stroke="#183943" stroke-width="4" fill="#E8B9A0"></path>
                    <g id="moth" transform="translate(122.000000, 255.000000)" stroke="#3B1313" stroke-width="4">
                        <path d="M0.23285487,2.41639741 C0.0230358881,2.20789255 -0.152762983,2.03161148 -0.294897099,1.88718405 C-0.44158222,1.73813219 -0.555389951,1.62002316 -0.640489244,1.52812185 C-0.696081355,1.46808624 -0.743102552,1.41539623 -0.786911763,1.36293005 C-0.832025167,1.30843514 -0.832025167,1.30843514 -0.900208182,1.21686163 C-0.990018815,1.10282387 -0.990018815,1.10282387 -1.19822224,0.610926512 C-1.3760257,0.074501061 -1.3760257,0.074501061 -0.798268335,-1.27249088 C0.519208425,-2.06515206 0.519208425,-2.06515206 1.12841041,-1.92911051 C1.67267797,-1.74887717 1.67267797,-1.74887717 1.80634327,-1.65815158 C1.91467848,-1.59187609 2.0096217,-1.52366883 2.13480437,-1.42803799 C2.27710288,-1.31933185 2.42301684,-1.20281144 2.81915075,-0.883517681 C3.83385029,-0.0656446815 4.41845968,0.39835266 5.27976736,1.05846911 C8.03942229,3.17350147 10.9663649,5.19648065 14.1617071,7.10210241 C21.040245,11.2042894 27.9974357,14.0526618 34.7944688,15.1364255 C46.7917997,17.049359 62.6137463,17.6080625 82.2399418,16.8025668 L89.7742566,16.4933445 L83.3835458,20.4958854 C52.8908567,39.5936415 32.4400485,47.9874985 21.4523124,45.5601395 C4.76091948,41.8727554 -2.26628258,27.2157804 0.23285487,2.41639741 Z" id="status-2" opacity="0"></path>
                        <path d="M0.456160163,2.63776731 C0.145119177,2.3300953 -0.104950532,2.08019538 -0.294897099,1.88718405 C-0.44158222,1.73813219 -0.555389951,1.62002316 -0.640489244,1.52812185 C-0.696081355,1.46808624 -0.743102552,1.41539623 -0.786911763,1.36293005 C-0.832025167,1.30843514 -0.832025167,1.30843514 -0.900208182,1.21686163 C-0.990018815,1.10282387 -0.990018815,1.10282387 -1.19822224,0.610926512 C-1.3760257,0.074501061 -1.3760257,0.074501061 -0.798268335,-1.27249088 C0.519208425,-2.06515206 0.519208425,-2.06515206 1.12841041,-1.92911051 C1.67267797,-1.74887717 1.67267797,-1.74887717 1.80634327,-1.65815158 C1.91467848,-1.59187609 2.0096217,-1.52366883 2.13480437,-1.42803799 C2.27710288,-1.31933185 2.42301684,-1.20281144 2.81915075,-0.883517681 C3.83385029,-0.0656446815 4.41845968,0.39835266 5.27976736,1.05846911 C8.03942229,3.17350147 10.9663649,5.19648065 14.1617071,7.10210241 C21.040245,11.2042894 27.9974357,14.0526618 34.7944688,15.1364255 C46.7917997,17.049359 62.6137463,17.6080625 82.2399418,16.8025668 L97.0151542,16.1961646 L82.9318516,20.7056228 C57.4391284,28.8683651 39.4423043,31.8100489 28.7290969,29.4433375 C12.4873125,25.8552788 2.94186993,16.853047 0.456160163,2.63776731 Z" id="status-1"></path>
                    </g>
                    <rect id="eye-right" fill="#3B1313" transform="translate(111.861450, 195.173989) rotate(9.000000) translate(-111.861450, -195.173989) " x="102.86145" y="176.173989" width="18" height="38" rx="8"></rect>
                    <rect id="eye-left" fill="#3B1313" transform="translate(236.404804, 204.955314) rotate(4.000000) translate(-236.404804, -204.955314) " x="227.404804" y="185.955314" width="18" height="38" rx="8"></rect>
                    <path d="M27.8323579,196.521181 C30.6696417,200.20508 33.7547016,200.851173 37.0875375,198.45946 C40.4203733,196.067748 38.7952008,186.329863 32.2120197,169.245806 C39.873697,173.36062 44.3809257,179.722952 45.7337058,188.3328 C47.7628761,201.247572 46.0757639,217.077574 39.1438918,217.077574 C34.5226438,217.077574 30.7521325,210.225443 27.8323579,196.521181 Z" id="ear" stroke="#183943" stroke-width="4" fill="url(#linearGradient-2)"></path>
                    <g id="hair">
                        <use fill="#BAA7BF" fill-rule="evenodd" xlink:href="#path-3"></use>
                        <path stroke="#183943" stroke-width="4" d="M182.279425,4.4861905 C136.115914,11.5609067 101.952387,13.5207851 79.7103637,10.3394754 C67.3225589,10.3991559 37.5296263,16.634098 34.5058664,20.3538743 C33.3806227,21.7381293 32.1996683,23.1204741 30.895699,24.5887938 C29.9571257,25.6456634 28.9869158,26.712105 27.7707867,28.0294859 C27.305693,28.5333021 25.2518247,30.7478967 24.7054066,31.3404118 C16.8318217,39.8782283 12.8831494,45.3202627 9.5122469,53.4340561 C5.20369861,63.8047716 3,77.1577148 3,95.5728359 C3,126.377251 5.92820849,144.106133 10.8999038,147.975708 C14.179186,145.620199 17.0120761,144.168917 19.4551961,143.63721 C22.0759057,143.066854 26.5826716,143.066854 33.1160066,143.598042 L33.7304002,143.647995 L34.2100724,144.03515 C46.3842648,153.861243 53.1240852,161.555295 54.4586394,167.47365 C56.8275183,177.97893 59.5131671,185.351112 62.2854148,189.620081 C64.3428578,192.788326 66.0242326,193.735274 67.179345,193.294769 C71.5384763,191.632403 77.9722556,165.888358 84.9098971,118.859274 L85.3151703,116.111996 L87.7923837,117.367064 C107.901331,127.555169 120.715974,132.687218 125.681788,132.687218 C128.048888,132.687218 128.556756,131.938772 128.128839,129.553086 C127.69715,127.146368 126.187716,123.884687 123.966432,120.179526 L120.166308,113.840818 L126.644436,117.398066 C165.287621,138.617684 210.46342,143.741074 262.256124,132.730933 L264.529422,132.247673 L264.668413,134.56761 C266.824858,170.561324 269.988575,191.367334 273.693273,195.8991 C273.924649,196.167567 276.131875,195.090005 279.700826,191.680647 C283.500456,188.050926 288.300937,182.363186 293.575931,175.339136 C302.989313,162.804514 312.951524,147.188085 315.293373,141.533993 C316.766637,137.976989 316.382849,136.476122 314.046991,133.306565 C313.980222,133.216002 313.980222,133.216002 313.912716,133.124473 C310.330199,128.266159 309.708242,124.793281 313.039541,118.244368 C314.820396,114.743432 317.035057,111.606408 320.079526,108.005508 C321.108647,106.788296 324.49631,102.951262 324.584202,102.84994 C326.19972,100.987579 327.281179,99.6220635 328.136427,98.3174173 C330.044668,95.4064693 330.642944,92.9986944 329.97591,90.3764506 C329.184465,87.2651174 325.046933,85.0766856 317.905068,83.587117 C316.370105,83.2669721 314.780769,82.9907496 312.763098,82.6793929 C312.978918,82.7126971 309.118843,82.131641 308.212436,81.9799838 C304.083089,81.2890738 302.856783,80.8956177 302.533426,78.9240826 C302.267081,77.3001532 303.251895,76.4789373 304.687759,75.9960796 C305.34466,75.7751744 306.17508,75.6065154 307.424498,75.4139078 C308.000909,75.3250495 310.498591,74.9738407 311.128295,74.8793246 C312.716527,74.6409372 314.03297,74.40714 315.285359,74.1276477 C322.332162,72.555032 325.564828,69.9251689 324.836412,65.1691163 C324.304381,61.6953274 319.035633,56.921635 309.620419,51.2640367 C304.819883,48.379396 299.148451,45.3591204 291.853322,41.7284508 C288.529321,40.0741488 275.628511,33.8103229 272.765241,32.3785482 C266.139325,29.0652663 262.029971,26.7617097 259.56562,24.8556967 C254.536406,20.9659322 253.09442,17.9959654 251.983555,12.0910009 C251.15552,7.68946648 250.16461,6.24646329 245.436997,4.3581904 C237.513464,1.19342369 216.306035,1.19171247 182.279425,4.4861905 Z"></path>
                    </g>
                </g>
                <g id="colth" transform="translate(0.000000, 338.000000)" stroke="#183943">
                    <path d="M120.187973,577.873638 C110.517702,610.551934 104.898511,633.215724 103.330398,645.865006 C101.762286,658.514289 101.762286,681.178079 103.330398,713.856375 L415.935123,713.856375 L399.957406,577.873638 C321.900799,591.05026 262.503989,597.638571 221.766975,597.638571 C181.029961,597.638571 147.170294,591.05026 120.187973,577.873638 Z" id="Path-22" stroke-width="4" fill="#51505F"></path>
                    <path d="M509.952283,253.936169 C512.965135,265.723538 538.866219,268.825331 544.666794,285.004128 C550.445767,301.122673 546.145133,330.422017 531.764891,372.902159 C494.965842,398.453966 473.632214,411.668086 467.764007,412.544519 C413.679966,399.809379 434.714347,360.822954 408.087845,331.76727 C381.461342,302.711586 506.93943,242.1488 509.952283,253.936169 Z" id="arm-left-big" stroke-width="4" fill="#E8B9A0"></path>
                    <path d="M411.752018,335.933662 C421.247307,312.018119 431.686358,295.66368 443.069172,286.870344 C454.451986,278.077009 479.386307,267.10517 517.872135,253.954829 C505.83584,191.532741 491.902398,157.358977 476.07181,151.433537 C452.325928,142.545376 345.548035,171.45491 330.156858,215.604216 C319.896073,245.037086 347.09446,285.146902 411.752018,335.933662 Z" id="Path-11" stroke-width="3" fill="#E47F7F"></path>
                    <path d="M164.300781,-5.68434189e-14 L153.921875,18.734375 C119.593548,33.1216332 94.9399022,44.0409041 79.9609375,51.4921875 C64.9819728,58.9434709 38.5822332,74.2169084 0.76171875,97.3125 L0.76171875,345.078125 C30.6738093,430.317598 50.4290177,482.314994 60.0273438,501.070312 C72.289133,525.030091 95.1295017,518.829323 98.1992188,527.070312 C100.245697,532.564305 100.245697,553.737482 98.1992188,590.589844 C171.18693,608.644669 220.466878,618.652482 246.039063,620.613281 C284.397339,623.55448 286.501827,610.926997 322.914063,607.820313 C359.326298,604.713628 385.917974,613.402697 395.980469,607.820313 C406.042964,602.237928 400.519531,587.726562 395.980469,567.285156 C391.441406,546.84375 401.953125,536.800781 406.097656,519.332031 C410.242188,501.863281 395.980469,466.605469 395.980469,445.183594 C395.980469,423.761719 400.179687,398.625 406.097656,380.273438 C410.042969,368.039063 420.861979,267.953125 438.554688,80.015625 C425.901304,66.1852623 415.082293,56.6774498 406.097656,51.4921875 C397.113019,46.3069252 369.385155,37.7991127 322.914063,25.96875 L309.199219,10.5390625 C300.279948,41.4921875 281.095052,58.3268229 251.644531,61.0429687 C222.19401,63.7591146 193.079427,43.4114583 164.300781,-5.68434189e-14 Z" id="Path-1" stroke-width="4" fill="#E47F7F"></path>
                    <path d="M163.921875,1 L154,17.6210938 C162.77247,43.6168886 170.622731,62.2978782 177.550781,73.6640625 C184.478832,85.0302468 193.714509,94.3805072 205.257812,101.714844 C212.169534,87.9710014 217.597919,78.620741 221.542969,73.6640625 C225.488018,68.707384 231.905987,63.1735299 240.796875,57.0625 C223.271182,52.6224086 211.424828,48.1536586 205.257812,43.65625 C199.090797,39.1588414 185.312152,24.9400914 163.921875,1 Z" id="Path-2" stroke-width="4" fill="#E47F7F"></path>
                    <path d="M257,55.5742187 C267.209295,61.8323338 274.53742,67.1253026 278.984375,71.453125 C283.43133,75.7809474 287.816747,81.8877183 292.140625,89.7734375 C303.37126,77.6381858 310.241051,68.9285503 312.75,63.6445312 C315.258949,58.3605122 320.102699,43.482908 327.28125,19.0117188 L312.75,4 C302.315567,20.2516899 293.95489,31.2855441 287.667969,37.1015625 C281.381048,42.9175809 271.158392,49.075133 257,55.5742187 Z" id="Path-3" stroke-width="4" fill="#E47F7F"></path>
                    <path d="M252.683594,61.1445312 L246.402344,88.546875 L269.628906,129.113281 C280.469908,146.255038 284.778502,173.364413 282.554688,210.441406 C279.218966,266.056896 260.926896,295.093358 258.195312,319.742187 C255.463729,344.391017 265.936245,357.637665 268.033203,376.511719 C270.130161,395.385772 271.04599,414.522966 269.628906,422.652344 C268.211823,430.781722 277.02382,442.877066 277.695312,446.378906 C278.366805,449.880746 277.695312,424.875 277.695312,464.71875 C277.695312,490.520144 282.679774,490.646894 282.554688,504.386719 C282.48661,511.86459 275.860816,526.190921 277.695312,544.40625 C281.165444,578.86234 286.177163,602.062861 292.730469,614.007812" id="Path-4" stroke-width="4"></path>
                    <path d="M47.3242188,134.394531 C63.7443312,143.775557 75.429227,151.449385 82.3789062,157.416016 C89.3285855,163.382646 95.5199918,171.056474 100.953125,180.4375" id="Path-5" stroke-width="4"></path>
                    <path d="M111.058594,216.394531 C105.602865,306.367188 109.236979,356.473958 121.960938,366.714844 C87.9980469,389.894531 55.3125,453.175781 54.0351562,486.3125" id="Path-6" stroke-width="4"></path>
                </g>
            </g>
            <g id="baby" transform="translate(383.000000, 816.000000)">
                <g id="colth" transform="translate(51.000000, 0.000000)" stroke="#183943" stroke-width="4">
                    <path d="M320.741255,23.8591939 C256.182021,-40.1777164 66.8795489,32.4929007 14.1432698,149.09403 C-38.5930092,265.69516 64.8639932,357.980576 180.52494,308.617895 C296.185887,259.255214 385.300489,87.8961042 320.741255,23.8591939 Z" id="Path-7" fill="#E7D9A4"></path>
                    <path d="M137,103 L145.953367,114.56018" id="Path-9"></path>
                    <path d="M244,221 L252.953367,232.56018" id="Path-9-Copy"></path>
                    <path d="M47,109 C58.3617571,132.628115 67.9023198,149.587822 75.6216881,159.87912 C83.3410563,170.170418 95.5174627,182.163313 112.150907,195.857806" id="Path-10"></path>
                    <path d="M96.9401542,55.7857044 C102.592453,68.5931795 107.533817,78.0220169 111.764246,84.0722166 C115.994675,90.1224163 120.936039,94.8274838 126.588338,98.1874192" id="Path-8"></path>
                </g>
                <g id="face" transform="translate(222.000000, 13.000000)">
                    <path d="M83.1740811,127.141031 C118.329428,127.141031 138.678802,104.936059 138.678802,69.7807121 C138.678802,34.625365 92.1513196,0.406254505 56.9959725,0.406254505 C21.8406254,0.406254505 0.378752145,24.5054825 0.378752145,59.6608296 C0.378752145,94.8161768 48.018734,127.141031 83.1740811,127.141031 Z" stroke="#3B1313" stroke-width="4" fill="#E8B9A0"></path>
                    <circle id="eye-right" stroke="#3B1313" stroke-width="4" fill="#3B1313" cx="61.5" cy="17.5942779" r="4.5"></circle>
                    <circle id="eye-left" stroke="#3B1313" stroke-width="4" fill="#3B1313" cx="107.5" cy="68.5" r="4.5"></circle>
                    <g id="moth" transform="translate(63.069660, 59.634555) rotate(-43.000000) translate(-63.069660, -59.634555) ">
                        <use fill="#3B1313" fill-rule="evenodd" xlink:href="#path-4"></use>
                        <path stroke="#3B1313" stroke-width="4" d="M64.8046546,43.6345547 C62.9878305,43.6345547 61.3992041,44.8589905 60.9365319,46.6159152 C59.32196,52.746997 58.5151166,56.8727609 58.5151166,58.8255872 C58.5151166,60.8353121 59.3586227,65.4764791 61.0409429,72.5589641 C61.4691843,74.3618389 63.0796231,75.6345547 64.9326607,75.6345547 L65.7401476,75.6345547 C65.9523681,75.6345547 66.1623845,75.5915181 66.3575001,75.5080467 C67.1544829,75.1670935 67.5241603,74.2446254 67.1831897,73.447636 C64.7558208,67.7736271 63.5358112,63.8001586 63.5358112,61.3067986 C63.5358112,58.745108 64.8592803,53.7858119 67.5196247,46.1375856 C67.5888536,45.9385609 67.624204,45.7293324 67.624204,45.518611 C67.624204,44.4780754 66.7806832,43.6345547 65.7401476,43.6345547 L64.8046546,43.6345547 Z"></path>
                    </g>
                </g>
                <path d="M3.1015625,459.300781 C-4.0546875,400.46224 3.81510417,357.009115 26.7109375,328.941406 C61.0546875,286.839844 156.502443,255.208677 170.329612,242.991615 C172.254391,225.855469 174.921176,175.08351 188.665542,171.069661 C194.219384,169.447739 205.568223,159.181051 208.199219,161.761719 C210.830214,164.342387 197.228281,187.698175 200.368105,195.671457 C200.563339,174.450656 239.04054,111.542969 247.69745,116.26859 C251.554241,118.37393 242.054862,138.067276 236.010965,158.625208 C234.010867,165.428416 231.478948,175.775824 228.41521,189.667433 C238.455044,163.797594 246.599752,145.388165 252.849334,134.439145 C262.223708,118.015616 271.394279,108.326007 275.569992,112.297299 C278.353801,114.944827 270.780249,144.637257 252.849334,201.37459 C273.888682,145.703006 286.864478,120.161789 291.776722,124.750939 C296.688965,129.340089 287.155415,156.151477 263.176071,205.185101 C272.92859,179.803134 279.700534,168.43132 283.491904,171.069661 C289.178959,175.027171 267.256273,221.028154 265.831255,224.494904 C253.362471,254.828656 240.132812,251.421875 220.398437,290.972656 C200.664063,330.523438 152.201344,390.70625 105.636719,426.777344 C74.5936353,450.82474 40.4152499,461.665886 3.1015625,459.300781 Z" id="arm-right" stroke="#183943" stroke-width="4" fill="#E8B9A0"></path>
                <path d="M401.568969,203.295047 C392.480382,193.450468 399.565032,166.159692 396.994102,157.0044 C394.423171,147.849108 358.89708,111.964476 352.66848,111.578142 C348.516079,111.320585 343.255631,116.978486 336.887135,128.551842 L380.502625,171.818519 L336.887135,128.551842 C331.672662,133.021321 328.122461,136.538169 326.236534,139.102385 C324.350607,141.666602 321.824147,146.411938 318.657153,153.338392 L364.262682,195.387699 L318.657153,153.338392 C315.354585,157.530946 312.993034,160.997764 311.572502,163.738849 C310.15197,166.479933 308.590882,170.582304 306.889239,176.045963 L348.635593,209.932217 L306.889239,176.045963 C300.526302,183.73374 298.310206,189.190598 300.240952,192.416537 C303.13707,197.255445 336.887135,227.057358 344.266401,229.008486 C346.43358,231.692626 349.718976,251.187925 348.635593,272.643467 C347.534796,294.443875 342.064387,318.235542 344.266401,324.328899 C347.179195,332.389114 356.891341,339.761894 373.402838,346.44724 C384.084998,341.940418 393.473708,337.124671 401.568969,332 C409.664229,326.875329 421.59242,318.428779 437.353543,306.660353 C439.186516,297.99246 440.541929,291.645272 441.419782,287.61879 C444.382396,274.030051 449.861355,260.766304 445.783415,246.100346 C436.947752,214.323644 410.657555,213.139627 401.568969,203.295047 Z" id="arm-left-lettle" stroke="#183943" stroke-width="4" fill="#E8B9A0"></path>
            </g>
            <g id="mother" opacity="0.99000001" transform="translate(419.000000, 750.000000)">
                <g id="Rectangle-7">
                    <use fill="#ECF9FB" fill-rule="evenodd" xlink:href="#path-5"></use>
                    <path stroke="#183943" stroke-width="4" d="M591.214959,420.723589 L463.724059,529.774125 L899.159189,617.21721 L1013.50441,515.027767 L990.360787,390.053726 L591.214959,420.723589 Z"></path>
                </g>
                <g id="Rectangle-2" transform="translate(286.248856, 591.439922) rotate(-33.000000) translate(-286.248856, -591.439922) ">
                    <use fill="#ECF9FB" fill-rule="evenodd" xlink:href="#path-6"></use>
                    <path stroke="#183943" stroke-width="4" d="M-18.1140761,540.952761 L-18.1140761,559.042421 L330.166151,558.407076 L291.618733,628.012019 L307.040998,638.027355 L351.35412,559.003136 L500.409885,558.774489 L452.798109,632.090195 L467.267881,641.486975 L521.411366,558.11332 L590.611789,558.701424 L590.611789,540.62732 L-18.1140761,540.952761 Z"></path>
                </g>
                <path d="M593.407802,80.705658 C572.330496,58.0470423 556.560411,49.6980532 546.097547,55.6586907 C535.634682,61.6193281 535.634682,76.4963419 546.097547,100.289732 C506.724566,169.863275 485.350253,225.919896 481.974606,268.459593 C478.81848,308.232913 474.803407,439.646643 537.027546,455.850974 C542.513527,457.279626 657.424918,479.045447 881.761719,521.148437 L844.233885,100.289732 C764.090963,87.2336826 707.886863,75.8879881 675.621584,66.2526484 C643.356305,56.6173087 615.951711,61.4349785 593.407802,80.705658 Z" id="Path-14" stroke="#183943" stroke-width="4" fill="#ECF9FB"></path>
                <path d="M693.334288,405.572654 L733.438531,460.814037 C674.575583,485.133041 622.672048,498.955208 577.727926,502.280539 C532.783804,505.60587 488.19963,492.419997 443.975402,462.722921 C432.573526,453.508206 426.99037,448.240951 427.225934,446.921156 C427.461497,445.601361 433.044653,447.440726 443.975402,452.439251 C429.347845,442.530586 422.632258,436.384368 423.828642,434.000597 C425.025026,431.616826 432.728955,434.436166 446.94043,442.458618 C428.701388,430.31433 420.625796,423.01824 422.713654,420.570347 C424.801512,418.122454 433.833608,422.599204 449.809942,434.000597 C435.39864,419.395236 428.979812,411.005906 430.553457,408.832605 C432.913926,405.572654 449.384799,425.255493 456.414602,422.938567 C463.444405,420.62164 462.772594,405.23041 466.330636,407.341647 C468.702663,408.749139 469.425102,416.338081 468.497951,430.108473 C524.019635,448.733459 566.586565,456.664837 596.198742,453.902606 C625.810919,451.140375 658.189434,435.030391 693.334288,405.572654 Z" id="Path-16" stroke="#183943" stroke-width="4" fill="#E8B9A0"></path>
                <path d="M727.567327,403.268915 L857.895061,543.206933 L938.750319,468.577875 L1002.10479,337.456396 L969.941066,75.0982174 C917.205178,33.3395435 874.459616,9.09477266 841.704379,2.36390483 C808.949142,-4.36696301 770.903458,3.27602888 727.567327,25.2928805 C712.522685,8.7155438 704.262336,1.07255191 702.78628,2.36390483 C701.310224,3.65525774 705.557753,14.8089334 715.528867,35.8249319 C701.884081,27.0280136 693.982198,23.5173298 691.823217,25.2928805 C689.664236,27.0684312 691.775199,35.3415823 698.156104,50.1123338 C656.773042,89.7994357 632.556721,119.707105 625.50714,139.83534 C618.457559,159.963576 616.850155,203.788802 620.684928,271.311017 C592.258063,323.621344 588.383224,363.159211 609.060411,389.924618 C629.737599,416.690026 669.239904,421.138125 727.567327,403.268915 Z" id="Path-17" stroke="#183943" stroke-width="4" fill="#BAA7BF"></path>
                <path d="M669,538.372049 C670.931906,530.796084 673.044753,525.001868 675.338539,520.989402 C678.779218,514.970702 696.070643,507.18338 698.731049,485.653014 C681.639609,479.860859 679.197675,460.238617 684.641111,445.704752 C688.270068,436.015508 702.428497,423.513615 727.116399,408.199074 L707.460905,422.232592 L696.14952,405.023289 C707.551899,390.405016 717.874192,380.136246 727.116399,374.216979 C736.358607,368.297711 754.039308,362.225385 780.158502,356 C756.921765,376.351142 769.813306,386.555466 818.833125,386.612972 C867.852944,386.670477 882.855927,378.169862 863.842073,361.111125 C898.079128,383.65077 915.572435,402.413711 916.321995,417.399948 C917.071555,432.386186 914.705881,449.577477 909.224973,468.973822 C898.184307,472.291706 890.088368,474.205425 884.937156,474.71498 C879.785943,475.224534 868.535624,475.224534 851.186197,474.71498 L857.181137,445.704752 C849.110483,483.191135 838.896244,510.845031 826.538421,528.66644 C814.180597,546.487849 798.720625,555.859131 780.158502,556.780287 L669,538.372049 Z" id="Path-13" stroke="#183943" stroke-width="3" fill="#A0E0DA"></path>
                <path d="M158.92384,753.832897 C143.698524,733.148231 143.698524,716.508261 158.92384,703.912987 C174.149155,691.317712 221.685645,668.632707 301.533308,635.857972 C319.21105,602.85494 336.217475,580.378081 352.552582,568.427395 C368.88769,556.476709 407.989861,537.904791 469.859094,512.711639 C625.504372,512.392177 730.518532,516.64305 784.901572,525.464259 C839.284612,534.285468 900.186433,556.94702 967.607036,593.448915 L967.607036,753.832897 L158.92384,753.832897 Z" id="Path-12" stroke="#183943" stroke-width="4" fill="#DCF5FE"></path>
                <path d="M854.964338,474.991546 C865.604506,475.672062 873.845867,475.672062 879.688423,474.991546 C885.530978,474.31103 894.262927,472.334051 905.88427,469.060608 C891.514707,528.221839 848.559955,573.550008 777.020016,605.045115 C705.480076,636.540222 629.576731,646.914734 549.30998,636.16865 C540.636301,633.281689 536.0146,630.340516 535.444875,627.345129 C534.87515,624.349742 538.5955,622.465755 546.605926,621.693169 C527.318748,619.077629 517.67516,616.061405 517.67516,612.644497 C517.67516,609.227589 527.015057,607.9273 545.69485,608.743627 C527.015057,605.012556 517.67516,601.219898 517.67516,597.365654 C517.67516,593.51141 527.318748,593.51141 546.605926,597.365654 C520.861851,588.352419 509.937774,581.522664 513.833697,576.876387 C519.677581,569.906971 550.522504,588.242929 557.733316,585.221719 C564.944128,582.200508 560.259005,556.575537 564.944128,557.009751 C568.067543,557.299227 571.784403,567.270457 576.094706,586.92344 C640.237329,590.708824 698.492431,580.737595 750.860011,557.009751 C803.227591,533.281908 837.929033,505.942506 854.964338,474.991546 Z" id="Path-15" stroke="#183943" stroke-width="3" fill="#E8B9A0"></path>
                <path d="M676.778917,187.726197 C660.213729,233.994417 657.640364,270.345271 669.05882,296.778756 C680.477277,323.212242 721.431936,338.475466 791.922796,342.568429 L791.922796,359.535785 L758.658071,364.532962 C756.794621,381.073574 771.895682,391.513164 803.961255,395.851732 C836.026828,400.1903 863.395367,394.501798 886.066874,378.786224 C878.45528,372.16133 872.125238,367.410243 867.076749,364.532962 C862.02826,361.655682 853.722392,358.065339 842.159144,353.761934 L842.159144,336.803112 C864.171613,333.722031 878.807523,329.861417 886.066874,325.22127 C893.326225,320.581122 902.112892,309.470121 912.426874,291.888266 C941.547911,291.373328 956.138302,274.787196 956.198046,242.129871 C956.25779,209.472546 941.6674,202.693354 912.426874,221.792297 C918.983481,216.935215 923.913367,211.6529 927.216535,205.945351 C930.519702,200.237801 933.267939,184.969582 935.461244,160.140692 C933.339723,194.050651 929.845874,211.00563 924.979698,211.00563 C920.113522,211.00563 911.178351,188.354345 898.174186,143.051775 C919.63932,189.030838 922.754275,211.682123 907.519049,211.00563 C838.48052,207.940096 787.256027,173.519454 753.845571,107.743705 C768.714053,150.227593 770.31822,175.771796 758.658071,184.376314 C754.98727,187.085153 742.707455,169.172553 721.818624,130.638513 C727.039442,142.586572 728.944656,149.260554 727.534268,150.660458 C722.172612,155.982261 714.920342,165.510013 705.189537,172.472303 C699.907072,176.251851 690.436865,181.336483 676.778917,187.726197 Z" id="Path-19" stroke="#183943" stroke-width="4" fill="#E8B9A0"></path>
                <path d="M924.616027,232.685271 C914.666671,247.449132 910.665273,258.847461 912.611833,266.880257 C914.558394,274.913053 921.096183,272.821146 932.2252,260.604538 C925.066829,264.869593 920.800947,264.482523 919.427555,259.443326 C918.054162,254.404129 919.783653,245.484777 924.616027,232.685271 Z" id="Path-20" stroke="#183943" stroke-width="4" fill="url(#linearGradient-7)"></path>
                <path d="M736.420957,248.720711 C748.627017,257.494951 759.767552,261.989911 769.842563,262.205593 C779.917573,262.421275 791.058108,259.428452 803.264169,253.227124" id="Path-21" stroke="#3B1313" stroke-width="9"></path>
                <ellipse id="Oval" fill="#3B1313" cx="696" cy="206" rx="9" ry="15"></ellipse>
                <ellipse id="Oval-2" fill="#3B1313" cx="845" cy="214" rx="9" ry="15"></ellipse>
                <g id="Rectangle-2-Copy" transform="translate(924.411214, 668.887398) rotate(-42.000000) translate(-924.411214, -668.887398) ">
                    <use fill="#ECF9FB" fill-rule="evenodd" xlink:href="#path-8"></use>
                    <path stroke="#183943" stroke-width="4" d="M766.998787,614.91347 L766.998787,632.999744 L919.846049,632.142114 L850.427069,709.239702 L865.570613,722.87501 L947.244041,632.167479 L1081.82364,632.167479 L1081.82364,614.080535 L766.998787,614.91347 Z"></path>
                </g>
            </g>
            <g id="father_means" opacity="0" transform="translate(225.000000, 223.000000)">
                <rect id="Rectangle-6" fill="#FFFFFF" x="0" y="0" width="667.423629" height="283" rx="25"></rect>
                <text id="我的宝贝啊…-爸爸妈妈无论如何都会一直爱" font-family="PingFangSC-Medium, PingFang SC" font-size="48" font-weight="400" fill="#4A4A4A">
                    <tspan x="87" y="85">我的宝贝啊…</tspan>
                    <tspan x="87" y="152">爸爸妈妈无论如何</tspan>
                    <tspan x="87" y="219">都会一直爱着你</tspan>
                </text>
            </g>
            <g id="baby_means" opacity="0" transform="translate(419.000000, 622.000000)">
                <rect id="Rectangle-8" fill="#FFFFFF" x="0" y="0" width="469" height="118" rx="25"></rect>
                <text id="我...我想做程序猿" font-family="PingFangSC-Medium, PingFang SC" font-size="48" font-weight="400" fill="#4A4A4A">
                    <tspan x="36" y="78">我...我想做程序猿</tspan>
                </text>
            </g>
            <g id="result" opacity="0" transform="translate(912.000000, 550.000000)">
                <mask id="mask-10" fill="white">
                    <use xlink:href="#path-9"></use>
                </mask>
                <use id="Rectangle-10" fill="#9DA2C2" xlink:href="#path-9"></use>
                <g id="light" mask="url(#mask-10)">
                    <g transform="translate(-49.961203, 29.976722)">
                        <mask id="mask-12" fill="white">
                            <use xlink:href="#path-11"></use>
                        </mask>
                        <use id="Path-40" stroke="none" fill="#B4B4D8" fill-rule="evenodd" xlink:href="#path-11"></use>
                        <g id="wall4" stroke="none" stroke-width="1" fill="none" fill-rule="evenodd" mask="url(#mask-12)">
                            <g transform="translate(72.943356, -6.994568)">
                                <g id="Rectangle-11-Copy-8">
                                    <use fill-opacity="0.1" fill="#D8D8D8" fill-rule="evenodd" xlink:href="#path-13"></use>
                                    <rect stroke="#9DA2C2" stroke-width="4" x="59.9549955" y="97.9255097" width="115.906887" height="45.961203"></rect>
                                </g>
                                <g id="Rectangle-11-Copy-9">
                                    <use fill-opacity="0.1" fill="#D8D8D8" fill-rule="evenodd" xlink:href="#path-14"></use>
                                    <rect stroke="#9DA2C2" stroke-width="4" x="297.27071" y="97.9255097" width="115.906887" height="45.961203"></rect>
                                </g>
                                <g id="Rectangle-11-Copy-10">
                                    <use fill-opacity="0.1" fill="#D8D8D8" fill-rule="evenodd" xlink:href="#path-15"></use>
                                    <rect stroke="#9DA2C2" stroke-width="4" x="178.862659" y="97.9255097" width="115.906887" height="45.961203"></rect>
                                </g>
                                <g id="Rectangle-11-Copy-2">
                                    <use fill-opacity="0.1" fill="#D8D8D8" fill-rule="evenodd" xlink:href="#path-16"></use>
                                    <rect stroke="#9DA2C2" stroke-width="4" x="61.9534436" y="2" width="115.906887" height="45.961203"></rect>
                                </g>
                                <g id="Rectangle-11-Copy-3">
                                    <use fill-opacity="0.1" fill="#D8D8D8" fill-rule="evenodd" xlink:href="#path-17"></use>
                                    <rect stroke="#9DA2C2" stroke-width="4" x="179.861883" y="2" width="115.906887" height="45.961203"></rect>
                                </g>
                                <g id="Rectangle-11-Copy-4">
                                    <use fill-opacity="0.1" fill="#D8D8D8" fill-rule="evenodd" xlink:href="#path-18"></use>
                                    <rect stroke="#9DA2C2" stroke-width="4" x="239.315714" y="49.9627549" width="115.906887" height="45.961203"></rect>
                                </g>
                                <g id="Rectangle-11-Copy-5">
                                    <use fill-opacity="0.1" fill="#D8D8D8" fill-rule="evenodd" xlink:href="#path-19"></use>
                                    <rect stroke="#9DA2C2" stroke-width="4" x="297.770322" y="2" width="115.906887" height="45.961203"></rect>
                                </g>
                                <g id="Rectangle-11-Copy">
                                    <use fill-opacity="0.1" fill="#D8D8D8" fill-rule="evenodd" xlink:href="#path-20"></use>
                                    <rect stroke="#9DA2C2" stroke-width="4" x="2" y="49.9627549" width="115.906887" height="45.961203"></rect>
                                </g>
                            </g>
                        </g>
                    </g>
                </g>
                <g id="background" mask="url(#mask-10)" stroke="#5C3659" stroke-width="4" fill="#B4B4D8">
                    <g transform="translate(-29.976722, 81.936373)">
                        <path d="M69.2926568,101.630261 C54.2478742,85.7250257 49.1760081,76.4280785 54.0770586,73.7394192 C58.978109,71.05076 65.7258576,80.3477071 74.3203043,101.630261 C67.1397884,68.2518989 67.1397884,51.1458721 74.3203043,50.3121804 C81.5008203,49.4784888 85.0910783,63.0325755 85.0910783,90.9744407 C106.190527,73.5703695 119.000637,67.8253623 123.521408,73.7394192 C128.042179,79.6534761 117.432228,88.9504233 91.6915562,101.630261 C129.611162,100.087206 153.24818,105.495133 162.602611,117.854042 C176.634258,136.392404 190.345296,145.293225 198.90959,165.470514 C218.285527,211.119798 223.426484,261.613511 225.305601,268.262286 C229.37015,282.643654 220.43599,291.199581 213.229763,296.985283 C208.425612,300.842418 196.22711,304.293761 176.634258,307.339312 L130.702254,301.064702 C110.144841,304.774905 94.9411161,306.866442 85.0910783,307.339312 C75.2410405,307.812182 46.8773478,307.812182 5.68434189e-14,307.339312 C1.03652746,252.989393 6.53289148,211.035952 16.4890921,181.478988 C25.049246,156.066466 45.9069233,123.984897 65.769789,102.920078 C66.5889273,102.051372 58.5356265,101.621433 41.6098864,101.630261 L69.2926568,101.630261 Z" id="Path-34"></path>
                        <path d="M38.7710564,173.66863 C51.8306379,185.116642 63.8282321,191.422205 74.7638392,192.58532 C85.6994463,193.748435 107.959057,191.086479 141.542672,184.599452 C129.707803,193.732847 119.170526,199.288906 109.930841,201.267629 C100.691156,203.246353 85.2843129,203.246353 63.7103107,201.267629" id="Path-35"></path>
                        <path d="M381.5233,48.1213817 L385.973895,38.4806354 L368.135033,10.9114837 C390.319393,-0.748166471 404.003925,-2.88502722 409.188627,4.50090141 C414.373329,11.88683 409.539138,24.8351228 394.686052,43.3457798 L385.973895,18.4794861 C389.988275,37.3949592 395.290302,48.5601396 401.879975,51.9750271 C411.764484,57.0973584 475.95496,72.2518813 486.709248,96.7098145 C507.437106,143.850136 478.910576,202.392846 477.672084,227.024051 C476.433593,251.655256 541.513802,258.110157 477.672084,276.441581 C413.830367,294.773006 345.239991,281.196715 322.339,271.626183 C299.438009,262.055651 296.345895,230.562786 298.603596,201.607236 C300.861297,172.651687 327.786209,158.998023 331.827193,149.937877 C335.868177,140.877732 333.074266,135.223118 331.827193,127.117796 C330.995811,121.714248 327.83308,108.76485 322.339,88.2696014 C331.931073,69.9532175 341.061096,57.855026 349.729067,51.9750271 C358.397038,46.0950282 368.995116,44.8104797 381.5233,48.1213817 Z" id="Path-36"></path>
                    </g>
                </g>
                <g id="Trash" mask="url(#mask-10)" stroke="#5C3659" stroke-width="4">
                    <g transform="translate(352.226481, 91.928613)">
                        <path d="M7.26285146,52.4645607 L0.298432048,26.6962089 C23.1777386,22.4295512 41.5571731,20.0561212 55.4367355,19.5759192 C69.3162979,19.0957171 119.5375,19.0957171 206.100342,19.5759192 L197.086394,41.417665 C125.20761,40.1051026 77.991057,40.1051026 55.4367355,41.417665 C32.882414,42.7302274 16.8244527,46.4125259 7.26285146,52.4645607 Z" id="Path-37" fill="#B4B4D8"></path>
                        <path d="M73.5011129,20.0567957 L73.5011129,5.27896101 C92.0378917,1.81222779 105.692023,0.0788611747 114.463506,0.0788611747 C123.23499,0.0788611747 136.889121,1.81222779 155.4259,5.27896101 L150.355139,20.0567957 L73.5011129,20.0567957 Z" id="Path-38" fill="#B4B4D8"></path>
                        <polygon id="Path-39" fill="#B5B5D5" points="19.7457442 48.259378 41.0369692 234.84944 30.3913567 248.585928 41.0369692 256.515417 41.0369692 263.546164 79.7193445 263.546164 185.999701 263.546164 185.999701 256.515417 198.737956 248.585928 185.999701 239.399527 194.402922 40.3880138 109.24185 40.3880138 114.554707 256.515417 109.24185 40.3880138 55.8015384 40.3880138 72.3436927 230.067205 77.3116452 239.399527 68.9079125 248.585928 79.7193445 263.546164 77.8350911 245.720479 168.522325 245.720479 77.3116452 245.720479 55.8015384 37.2754936"></polygon>
                    </g>
                </g>
                <g id="baby-4" mask="url(#mask-10)">
                    <g transform="translate(246.401583, 212.612485) rotate(-71.000000) translate(-246.401583, -212.612485) translate(138.481389, 66.300514)">
                        <polygon id="Path-31" stroke="#5C3659" stroke-width="4" fill="#CC8888" fill-rule="evenodd" transform="translate(85.303324, 169.443717) rotate(72.000000) translate(-85.303324, -169.443717) " points="-17.0069687 156.039363 160.768128 151.085667 208.232304 187.801767 -37.6256557 187.801767"></polygon>
                        <path d="M158.057443,84.2682676 C141.859633,82.9132838 130.21446,82.1763115 123.121926,82.0573506 C116.029392,81.9383898 110.717255,82.3909425 107.185516,83.4150087 C110.975636,82.9993317 113.54495,81.9196462 114.893457,80.1759523 C116.241965,78.4322583 115.749991,73.7362283 113.417538,66.0878621 C119.172837,66.8864811 124.207836,68.1231738 128.522534,69.79794 C132.837232,71.4727062 142.682202,76.0117291 158.057443,83.4150087 C149.518117,75.9647098 142.845925,70.7549593 138.040867,67.7857571 C133.235809,64.8165549 128.844662,63.1899064 124.867426,62.9058117 C134.319206,52.294794 140.178696,46.3568817 142.445896,45.0920749 C145.846696,43.1948646 149.736309,41.238579 155.95251,55.0492385 C159.364924,62.6306703 161.446956,69.8981359 162.198605,76.8516352 C162.206719,76.9267001 160.124688,76.9267001 155.95251,76.8516352 C152.480092,64.0026261 149.394598,56.7351605 146.69603,55.0492385 C141.664093,51.9055519 138.024096,61.9870041 138.040867,62.1916039 C138.075454,62.6135423 142.744791,61.1077006 149.259478,66.0878621 C151.782496,68.0165861 154.71515,73.339749 158.057443,82.0573506 C168.533388,69.2058094 176.262357,60.1908937 181.244348,55.0126036 C188.717335,47.2451684 189.925814,27.361631 185.896334,26.0041017 C183.210014,25.0990821 173.228739,26.6794567 155.95251,30.7452254 L155.95251,55.0492385 C159.018647,63.3507346 160.507692,69.0628791 160.419643,72.1856719 C160.153323,81.6311586 160.153323,83.9930745 160.419643,79.2714198 C165.08694,75.3104412 168.826113,72.9485252 171.637161,72.1856719 C174.448209,71.4228186 186.685213,69.9561803 208.348174,67.7857571 C204.501839,65.830855 201.99282,63.9661373 200.82112,62.1916039 C199.649419,60.4170705 201.296038,55.6322325 205.760977,47.8370898 L159.380673,77.8678601 C158.76978,80.8483522 159.116104,79.7716322 160.419643,74.6377002 C164.715769,57.7176037 163.062993,44.5686859 163.900413,42.8921175 C165.118971,40.4524871 170.015721,39.4562373 178.590663,39.9033682 C173.024784,45.7635154 169.977771,49.2641559 169.449625,50.4052898 C169.068398,51.2289829 166.668252,55.4968399 162.498619,67.7857571 C161.427336,70.9430862 159.946944,76.4372563 158.057443,84.2682676 Z" id="Path-32" stroke="#5C3659" stroke-width="4" fill="none" transform="translate(157.766845, 55.012604) rotate(39.000000) translate(-157.766845, -55.012604) "></path>
                        <g id="colth" stroke="none" stroke-width="1" fill="none" fill-rule="evenodd" transform="translate(0.000000, 52.478129)">
                            <path d="M162.244638,28.4075373 C134.69797,-26.5022447 23.7064398,29.0777116 9.06459588,90.9763682 C-5.57724804,152.875025 36.0967194,189.991178 92.1908798,170.67641 C148.28504,151.361642 189.791306,83.3173192 162.244638,28.4075373 Z" id="Path-7" stroke="#183943" stroke-width="4" fill="#E7D9A4" transform="translate(88.544734, 90.888124) rotate(-4.000000) translate(-88.544734, -90.888124) "></path>
                            <path d="M70.4452962,67.9472361 L74.9185062,73.7228413" id="Path-9" stroke="#183943" stroke-width="4"></path>
                            <path d="M123.903783,126.901456 L128.376993,132.677061" id="Path-9-Copy" stroke="#183943" stroke-width="4"></path>
                            <path d="M25.4802135,70.9449082 C31.1566841,82.7497989 35.9232639,91.2230723 39.7799532,96.3647285 C43.6366424,101.506385 49.7201215,107.498179 58.0303904,114.340113" id="Path-10" stroke="#183943" stroke-width="4"></path>
                            <path d="M50.4309153,44.358406 C53.254872,50.7571746 55.7236368,55.4679352 57.8372099,58.4906878 C59.950783,61.5134403 62.4195479,63.8641487 65.2435045,65.5428128" id="Path-8" stroke="#183943" stroke-width="4"></path>
                        </g>
                        <g id="face" stroke="none" stroke-width="1" fill="none" fill-rule="evenodd" transform="translate(86.932493, 71.463386)">
                            <path d="M33.5413945,74.9935516 C48.9191848,79.2404361 66.3971315,66.7529178 66.3971315,49.1888834 C66.3971315,31.6248491 55.4853971,8.25710598 34.5707161,1.83489055 C13.6560351,-4.58732488 -0.622607105,8.5971224 0.288331549,27.2629798 C1.1992702,45.9288373 18.1636042,70.7466671 33.5413945,74.9935516 Z" stroke="#3B1313" stroke-width="4" fill="#E8B9A0"></path>
                            <circle id="eye-right" stroke="#3B1313" stroke-width="4" fill="#3B1313" cx="43.189221" cy="18.0731813" r="2.24825413"></circle>
                            <circle id="eye-left" stroke="#3B1313" stroke-width="4" fill="#3B1313" cx="58.1613414" cy="41.9696176" r="2.24825413"></circle>
                            <g id="moth" transform="translate(38.258632, 39.790251) rotate(-30.000000) translate(-38.258632, -39.790251) ">
                                <use fill="#3B1313" fill-rule="evenodd" xlink:href="#path-21"></use>
                                <path stroke="#3B1313" stroke-width="4" d="M41.2006148,16.6234383 C40.8684109,16.6234383 40.5991064,16.3541338 40.5991064,16.0219299 C40.5991064,15.9711836 40.6055282,15.9206412 40.6182186,15.8715073 C37.3683813,28.4538899 35.7476175,36.579326 35.7476175,40.4710051 C35.7476175,44.3636294 37.362488,52.053304 40.5968284,63.7505057 C40.5046244,63.4169595 40.7001873,63.071926 41.0336514,62.9797213 C41.0880317,62.9646849 41.144194,62.9570633 41.2006148,62.9570633 C41.027795,62.9570633 40.8761703,62.8418572 40.8298581,62.6753583 C37.5584623,50.9141251 35.918183,43.2624468 35.918183,39.9577535 C35.918183,36.6471352 37.5621153,28.8805425 40.8398277,16.8987999 C40.8843092,16.7361882 41.0320446,16.6234383 41.2006148,16.6234383 Z"></path>
                            </g>
                        </g>
                    </g>
                </g>
                <g id="box" mask="url(#mask-10)" stroke-width="4" stroke="#5C3659">
                    <g transform="translate(82.935597, 192.350632)">
                        <polygon id="Path-28" fill="#CC8888" fill-rule="evenodd" points="53.8050661 72.0349831 74.7903865 38.4716068 53.8050661 17.7572237 0.102022069 44.8961034"></polygon>
                        <polygon id="Path-29" fill="#CC8888" fill-rule="evenodd" points="252.147543 28.964173 303.765191 68.8001567 348.609408 28.964173 300.378475 0.0313603456"></polygon>
                        <polygon id="Path-30" fill="#CC8888" fill-rule="evenodd" points="51.1203244 67.6178851 65.4307366 194.827022 291.926055 194.827022 300.36616 67.6178851"></polygon>
                        <path d="M65.3096291,99.4227939 L287.182766,99.4227939" id="Path-33" fill="none"></path>
                    </g>
                </g>
            </g>
        </g>
    </g>
</svg>